<?xml version="1.0" encoding="UTF-8"?>
<svg id="Layer_1" xmlns="http://www.w3.org/2000/svg" version="1.1" viewBox="0 0 100 100">
  <!-- Generator: Adobe Illustrator 30.1.0, SVG Export Plug-In . SVG Version: 2.1.1 Build 136)  -->
  <defs>
    <style>
      .st0 {
        fill: #910000;
      }
    </style>
  </defs>
  <path class="st0" d="m57.031 35.938v8.5938h-14.062v-8.5938c0-3.875 3.1562-7.0312 7.0312-7.0312s7.0312 3.1562 7.0312 7.0312zm27.344-12.5v26.531c0 14.094-7.7578 26.914-20.242 33.453l-13.406 7.0234c-0.22656 0.11719-0.47656 0.17969-0.72656 0.17969s-0.5-0.0625-0.72656-0.17969l-13.406-7.0234c-12.484-6.5391-20.242-19.359-20.242-33.453v-26.531c0-0.85938 0.70312-1.5625 1.5625-1.5625 11.711 0 22.977-4.2812 31.727-12.062 0.59375-0.53125 1.5391-0.57031 2.1328-0.039062 8.7891 7.8203 20.055 12.102 31.766 12.102 0.85938 0 1.5625 0.70312 1.5625 1.5625zm-17.969 24.906c0-2.1016-1.7109-3.8125-3.8125-3.8125h-0.875v-8.5938c0-6.4609-5.2578-11.719-11.719-11.719s-11.719 5.2578-11.719 11.719v8.5938h-0.875c-2.1016 0-3.8125 1.7109-3.8125 3.8125v18.93c0 2.1016 1.7109 3.8125 3.8125 3.8125h25.18c2.1016 0 3.8125-1.7109 3.8125-3.8125v-18.93zm-16.406 4.7812c-1.7266 0-3.125 1.3984-3.125 3.125v3.125c0 1.7266 1.3984 3.125 3.125 3.125s3.125-1.3984 3.125-3.125v-3.125c0-1.7266-1.3984-3.125-3.125-3.125z"/>
</svg>
