<?xml version="1.0" encoding="UTF-8"?>
<svg id="Layer_1" xmlns="http://www.w3.org/2000/svg" version="1.1" viewBox="0 0 100 100">
  <!-- Generator: Adobe Illustrator 30.1.0, SVG Export Plug-In . SVG Version: 2.1.1 Build 136)  -->
  <path d="M50.4-.3s0,1.7,0,1.6c0,.1,0-1.6,0-1.6-11.3,10-27.3,15.8-42.4,15.4v34.6c0,17.3,9.5,33.1,24.9,41.2l17.4,8.9v-1.7,1.7c0,.4,0,.5,0,.5l17.4-8.9c15.4-8,24.9-23.8,24.9-41.2V15.6c-15.1.5-31-5.8-42.2-15.9ZM70.1,73.3c0,1.6-1.3,2.8-2.8,2.8h-34.8c-1.6,0-2.8-1.3-2.8-2.8v-27.1c0-1.6,1.3-2.8,2.8-2.8h3v-10.6c0-10.5,11.3-18.4,22.3-12.3,4.1,2.3,6.6,6.6,6.6,11.3v11.6h1.1,0c2.6,0,4.7,2.1,4.7,4.7v25.2Z"/>
  <path d="M46.8,55.3c-.4.4-.7,1-.7,1.6v5.3c0,1.1.2,1.7.7,2.1,3.3,2.8,7,.5,7-2.6v-3.8c0-3.1-3.7-5.4-7-2.6Z"/>
  <path d="M53.1,24.8c3.2,1.3,5.5,4.4,5.5,8v10.6h.1v-10.5c0-3.7-2.3-6.9-5.6-8.1Z"/>
  <path d="M44.5,26c3-2,6.1-2.2,8.6-1.2-2.6-1-5.7-.8-8.7,1.1h0c-1.9,1.4-3.1,3.6-3.1,5.9v11.6h.1v-11.6c0-2.3,1.1-4.5,3.1-5.8Z"/>
  <path d="M53.1,24.8c-2.5-1-5.6-.8-8.6,1.2-2,1.3-3.1,3.5-3.1,5.8v11.6h17.2v-10.6c0-3.7-2.3-6.8-5.5-8Z"/>
</svg>